<?xml version="1.0" standalone="no"?>
<!DOCTYPE svg PUBLIC "-//W3C//DTD SVG 20010904//EN"
 "http://www.w3.org/TR/2001/REC-SVG-20010904/DTD/svg10.dtd">
<svg version="1.0" xmlns="http://www.w3.org/2000/svg"
 width="128.000000pt" height="128.000000pt" viewBox="0 0 128.000000 128.000000"
 preserveAspectRatio="xMidYMid meet">
<metadata>
Created by potrace 1.11, written by Peter Selinger 2001-2013
</metadata>
<g transform="translate(0.000000,128.000000) scale(0.100000,-0.100000)"
fill="#000000" stroke="none">
<path d="M309 960 c-129 -44 -202 -187 -213 -415 -8 -161 71 -256 210 -256
134 0 233 77 277 216 26 81 31 114 31 225 0 82 -3 112 -17 138 -54 100 -161
134 -288 92z m132 -119 c18 -19 29 -41 30 -60 1 -17 2 -46 3 -63 2 -44 -11
-131 -30 -197 -35 -123 -144 -163 -193 -72 -14 25 -5 197 13 266 27 98 71 149
134 154 8 1 27 -12 43 -28z"/>
<path d="M766 952 c-3 -9 -8 -42 -11 -72 -3 -30 -8 -62 -10 -70 -2 -8 -7 -40
-10 -70 -3 -30 -8 -62 -10 -70 -2 -8 -7 -40 -10 -70 -3 -30 -10 -82 -15 -115
-5 -33 -12 -85 -16 -115 -3 -30 -8 -58 -11 -62 -2 -5 17 -9 44 -9 26 -1 75 -3
108 -3 192 -6 283 54 334 218 32 105 44 221 28 291 -5 22 -10 46 -10 54 -1 27
-72 87 -117 99 -23 6 -98 11 -166 11 -107 0 -124 -2 -128 -17z m246 -121 c33
-29 33 -30 33 -123 -1 -194 -72 -314 -182 -305 -23 2 -28 7 -27 27 1 28 12
125 18 155 2 11 7 43 10 70 4 28 10 66 13 85 6 37 10 74 12 103 1 13 10 17 46
17 35 0 52 -6 77 -29z"/>
</g>
</svg>
